<?xml version="1.0" encoding="UTF-8"?><svg id="Layer_1" xmlns="http://www.w3.org/2000/svg" xmlns:xlink="http://www.w3.org/1999/xlink" viewBox="0 0 88.32 26.06"><defs><style>.cls-1{fill:url(#linear-gradient-2);}.cls-2{fill:#fff;}.cls-3{fill:url(#linear-gradient-6);}.cls-4{fill:url(#linear-gradient);fill-rule:evenodd;}.cls-5{fill:url(#linear-gradient-5);}.cls-6{fill:url(#linear-gradient-3);}.cls-7{fill:url(#linear-gradient-4);}</style><linearGradient id="linear-gradient" x1="2.07" y1="42.76" x2="8.21" y2="6.6" gradientTransform="translate(0 30) scale(1 -1)" gradientUnits="userSpaceOnUse"><stop offset="0" stop-color="#e9d193"/><stop offset="1" stop-color="#d4b962"/></linearGradient><linearGradient id="linear-gradient-2" x1="15.13" y1="44.98" x2="21.28" y2="8.82" gradientTransform="translate(0 30) scale(1 -1)" gradientUnits="userSpaceOnUse"><stop offset="0" stop-color="#e9d193"/><stop offset="1" stop-color="#d4b962"/></linearGradient><linearGradient id="linear-gradient-3" x1="27.81" y1="47.13" x2="33.95" y2="10.97" gradientTransform="translate(0 30) scale(1 -1)" gradientUnits="userSpaceOnUse"><stop offset="0" stop-color="#e9d193"/><stop offset="1" stop-color="#d4b962"/></linearGradient><linearGradient id="linear-gradient-4" x1="41.46" y1="49.45" x2="47.6" y2="13.29" gradientTransform="translate(0 30) scale(1 -1)" gradientUnits="userSpaceOnUse"><stop offset="0" stop-color="#e9d193"/><stop offset="1" stop-color="#d4b962"/></linearGradient><linearGradient id="linear-gradient-5" x1="58.38" y1="52.33" x2="64.53" y2="16.16" gradientTransform="translate(0 30) scale(1 -1)" gradientUnits="userSpaceOnUse"><stop offset="0" stop-color="#e9d193"/><stop offset="1" stop-color="#d4b962"/></linearGradient><linearGradient id="linear-gradient-6" x1="74.71" y1="55.1" x2="80.86" y2="18.94" gradientTransform="translate(0 30) scale(1 -1)" gradientUnits="userSpaceOnUse"><stop offset="0" stop-color="#e9d193"/><stop offset="1" stop-color="#d4b962"/></linearGradient></defs><path class="cls-2" d="M5.14,26h-1.03l-3.09-4.67v4.67H0v-6.26H1.03l3.09,4.66v-4.66h1.03v6.26Zm2.37-5.43v1.84h2.16v.84h-2.16v1.92h2.43v.84h-3.46v-6.26h3.46v.84h-2.43Zm11.84-.83l-1.86,6.25h-1.16l-1.32-4.73-1.39,4.73h-1.15l-1.77-6.25h1.09l1.3,5.09,1.4-5.09h1.15l1.31,5.07,1.31-5.07h1.1Zm7.82,0l-2.07,3.99v2.27h-1.03v-2.27l-2.08-3.99h1.14l1.45,3.07,1.45-3.07h1.13Zm3.67,6.32c-.56,0-1.12-.13-1.61-.41-.48-.27-.88-.67-1.16-1.14-.29-.5-.43-1.08-.42-1.66,0-.61,.14-1.16,.42-1.65,.28-.48,.68-.87,1.16-1.13,.49-.28,1.05-.42,1.61-.41,.59,0,1.13,.14,1.61,.41,.49,.27,.88,.65,1.16,1.13,.28,.49,.42,1.03,.42,1.65,0,.58-.14,1.15-.42,1.66-.28,.48-.68,.87-1.16,1.14-.49,.27-1.05,.41-1.61,.41Zm0-.89c.41,0,.78-.09,1.11-.28,.32-.19,.58-.46,.76-.81,.19-.35,.28-.76,.28-1.22s-.09-.87-.28-1.22c-.17-.34-.43-.61-.76-.8-.34-.19-.72-.29-1.11-.28-.41,0-.78,.09-1.11,.28-.33,.19-.59,.47-.76,.8-.18,.35-.27,.75-.27,1.22s.09,.87,.27,1.22c.19,.35,.44,.62,.76,.81,.32,.19,.69,.28,1.11,.28Zm7.45,.83l-1.44-2.5h-.78v2.5h-1.03v-6.26h2.16c.48,0,.88,.08,1.22,.25,.34,.17,.58,.39,.75,.67,.17,.28,.25,.6,.25,.94,0,.41-.12,.78-.36,1.12-.23,.33-.6,.56-1.09,.67l1.55,2.59h-1.22Zm-2.22-3.32h1.13c.38,0,.67-.1,.86-.29,.2-.19,.3-.45,.3-.77s-.1-.58-.29-.76c-.19-.19-.48-.28-.87-.28h-1.13v2.1Zm8.11,3.32l-2.42-2.8v2.8h-1.03v-6.26h1.03v2.85l2.43-2.85h1.29l-2.72,3.13,2.76,3.12h-1.34Z"/><path class="cls-4" d="M11.93,10.66c0,2.41-1.75,3.78-5.22,3.78H.32V.29H6.32c3.09,0,4.88,1.34,4.88,3.64,0,1.62-.85,2.69-2.12,3.21,1.78,.4,2.86,1.6,2.86,3.52ZM1.8,6.65H6.22c2.22,0,3.51-.87,3.51-2.57s-1.29-2.57-3.51-2.57H1.8V6.65Zm4.9,1.23c2.44,0,3.77,.81,3.77,2.65s-1.33,2.67-3.77,2.67H1.8V7.89H6.69Z"/><path class="cls-1" d="M23.99,14.44H14.17V.29h9.52V1.58H15.63V6.61h7.18v1.27h-7.18v5.26h8.35v1.3Z"/><path class="cls-6" d="M30.14,1.58h-4.88V.29h11.23V1.58h-4.88V14.44h-1.47V1.58Z"/><path class="cls-7" d="M50.5,14.44l-.04-7.5-3.57,6.11h-1.75l-3.55-5.9v7.3h-3.63V.29h3.24l4.88,8.17L50.84,.28h3.24l.04,14.15h-3.61Z"/><path class="cls-5" d="M66.2,7.06h3.47v5.86c-1.61,1.17-3.81,1.8-5.83,1.8-4.42,0-7.66-3.05-7.66-7.36,0-4.3,3.24-7.36,7.74-7.36,2.6,0,4.7,.91,6.07,2.59l-2.5,2.3c-.95-1.07-2.04-1.58-3.37-1.58-2.38,0-3.97,1.6-3.97,4.04s1.59,4.04,3.93,4.04c.73,0,1.43-.14,2.12-.47v-3.88h0Z"/><path class="cls-3" d="M84.71,14.44l-.04-7.5-3.57,6.11h-1.75l-3.55-5.9v7.3h-3.63V.29h3.24l4.88,8.17L85.05,.28h3.24l.04,14.15h-3.61Z"/></svg>