<?xml version="1.0" encoding="UTF-8"?>
<svg version="1.1" xmlns="http://www.w3.org/2000/svg" width="586" height="176">
<path d="M0 0 C44.33333333 0 44.33333333 0 53.8125 5.6875 C59.87977914 12.10148081 62.37335851 19.31897776 62.28125 28.01171875 C61.70845531 34.09766235 59.55358772 39.11050142 55.6875 43.8125 C53.60427778 45.50814599 51.51958973 47.0851679 49.33203125 48.63671875 C48.70659424 49.08104248 48.08115723 49.52536621 47.43676758 49.9831543 C46.96263428 50.31871338 46.48850098 50.65427246 46 51 C46.73863281 51.84820312 47.47726562 52.69640625 48.23828125 53.5703125 C53.98826056 60.20696193 59.59252383 66.91778867 64.96923828 73.86083984 C68.90101675 78.92499345 73.02024687 83.81048935 77.19921875 88.671875 C79 91 79 91 79 93 C60.09891937 95.51917517 60.09891937 95.51917517 53.81201172 91.65527344 C49.94177662 88.03978022 47.15479249 83.67716479 44.39111328 79.18945312 C42.23780159 75.80038692 39.71640877 72.73753655 37.1875 69.625 C34.65798547 66.43136932 32.16438081 63.22345516 29.75 59.94140625 C29.069375 59.03261719 28.38875 58.12382813 27.6875 57.1875 C27.11386719 56.39730469 26.54023438 55.60710938 25.94921875 54.79296875 C23.68925763 52.38623569 23.68925763 52.38623569 18 52 C18 65.53 18 79.06 18 93 C12.06 93 6.12 93 0 93 C0 62.31 0 31.62 0 0 Z M18 17 C18 22.94 18 28.88 18 35 C21.23057217 35.13523325 24.4554669 35.23421546 27.6875 35.3125 C28.59951172 35.35439453 29.51152344 35.39628906 30.45117188 35.43945312 C35.0703351 35.52343791 37.28006345 35.52614231 41.10546875 32.73046875 C43.28570879 29.60962131 43.28570879 29.60962131 43.625 26 C43.64433594 25.0409375 43.64433594 25.0409375 43.6640625 24.0625 C42.53541562 20.55705557 40.96778895 19.16891242 38 17 C34.53912015 16.39878305 31.18665934 16.52676123 27.6875 16.6875 C26.29047852 16.72133789 26.29047852 16.72133789 24.86523438 16.75585938 C22.57612873 16.81455439 20.28785439 16.90422935 18 17 Z " fill="#E7E3DE" transform="translate(430,1)"/>
<path d="M0 0 C4.62 0 9.24 0 14 0 C36.16567091 50.86333896 36.16567091 50.86333896 46.4375 75.1875 C46.77942383 75.9939093 47.12134766 76.8003186 47.47363281 77.63116455 C48.42252362 79.87097879 49.36649287 82.11279164 50.30859375 84.35546875 C50.58557602 85.00814224 50.86255829 85.66081573 51.14793396 86.33326721 C53 90.7696378 53 90.7696378 53 93 C46.73 93 40.46 93 34 93 C30.32788907 85.90058554 27.55610141 79.66830423 25 72 C13.12 72.33 1.24 72.66 -11 73 C-13.59046478 79.20676289 -13.59046478 79.20676289 -16.17553711 85.41577148 C-16.4978833 86.18477783 -16.82022949 86.95378418 -17.15234375 87.74609375 C-17.6472229 88.93223267 -17.6472229 88.93223267 -18.15209961 90.14233398 C-19 92 -19 92 -20 93 C-21.41570123 93.08651611 -22.835595 93.10704904 -24.25390625 93.09765625 C-25.10791016 93.09443359 -25.96191406 93.09121094 -26.84179688 93.08789062 C-27.73962891 93.07951172 -28.63746094 93.07113281 -29.5625 93.0625 C-30.46419922 93.05798828 -31.36589844 93.05347656 -32.29492188 93.04882812 C-34.53001634 93.03700223 -36.76496493 93.01968245 -39 93 C-37.09076471 86.99315941 -34.91373552 81.18934608 -32.40234375 75.41015625 C-32.05546005 74.60359085 -31.70857635 73.79702545 -31.35118103 72.96601868 C-30.21665245 70.33004795 -29.07707823 67.69629107 -27.9375 65.0625 C-27.14365902 63.22038025 -26.3502083 61.37809229 -25.55712891 59.53564453 C-23.89651011 55.67855469 -22.23418562 51.82220632 -20.57080078 47.96630859 C-16.72568316 39.048253 -12.90448995 30.11994111 -9.08157349 21.19235229 C-7.15686504 16.69815296 -5.23073939 12.2045612 -3.3046875 7.7109375 C-2.65868441 6.20361628 -2.01268754 4.69629239 -1.36669922 3.18896484 C-0.91568848 2.13660645 -0.46467773 1.08424805 0 0 Z M6 31 C4.33048395 34.9779772 2.66486446 38.95757402 1 42.9375 C0.52304688 44.07380859 0.04609375 45.21011719 -0.4453125 46.38085938 C-0.89648438 47.46044922 -1.34765625 48.54003906 -1.8125 49.65234375 C-2.23144531 50.65257568 -2.65039062 51.65280762 -3.08203125 52.68334961 C-4.06139699 54.73963009 -4.06139699 54.73963009 -4 56 C3.26 56 10.52 56 18 56 C16.741875 52.803125 15.48375 49.60625 14.1875 46.3125 C13.79715576 45.31387939 13.40681152 44.31525879 13.00463867 43.28637695 C10.48509136 36.89940956 10.48509136 36.89940956 7 31 C6.67 31 6.34 31 6 31 Z " fill="#E7E2DD" transform="translate(131,1)"/>
<path d="M0 0 C4.62 0 9.24 0 14 0 C23.66411277 22.30650534 33.30050224 44.62503449 42.84533691 66.98287964 C43.74065331 69.07889308 44.63722089 71.1743725 45.53503418 73.26931763 C46.79120919 76.20149027 48.04273126 79.13560422 49.29296875 82.0703125 C49.85877907 83.3875808 49.85877907 83.3875808 50.4360199 84.73146057 C50.77577347 85.53180222 51.11552704 86.33214386 51.46557617 87.15673828 C51.76356613 87.854534 52.06155609 88.55232971 52.36857605 89.27127075 C53 91 53 91 53 93 C46.73 93 40.46 93 34 93 C30.32788907 85.90058554 27.55610141 79.66830423 25 72 C13.12 72.33 1.24 72.66 -11 73 C-13.59046478 79.20676289 -13.59046478 79.20676289 -16.17553711 85.41577148 C-16.4978833 86.18477783 -16.82022949 86.95378418 -17.15234375 87.74609375 C-17.6472229 88.93223267 -17.6472229 88.93223267 -18.15209961 90.14233398 C-19 92 -19 92 -20 93 C-21.41570123 93.08651611 -22.835595 93.10704904 -24.25390625 93.09765625 C-25.10791016 93.09443359 -25.96191406 93.09121094 -26.84179688 93.08789062 C-27.73962891 93.07951172 -28.63746094 93.07113281 -29.5625 93.0625 C-30.46419922 93.05798828 -31.36589844 93.05347656 -32.29492188 93.04882812 C-34.53001634 93.03700223 -36.76496493 93.01968245 -39 93 C-36.76051133 85.9345001 -34.0561138 79.17141411 -31.1328125 72.36328125 C-30.66105087 71.25700882 -30.18928925 70.15073639 -29.70323181 69.01094055 C-28.18067078 65.44327971 -26.65297509 61.87784502 -25.125 58.3125 C-24.08107341 55.86972523 -23.03737278 53.42685388 -21.99389648 50.98388672 C-14.71944062 33.9646142 -7.40225391 16.96409054 0 0 Z M6 31 C4.32742736 34.78908876 2.66294885 38.58167885 1 42.375 C0.52304687 43.45523438 0.04609375 44.53546875 -0.4453125 45.6484375 C-0.89648438 46.6796875 -1.34765625 47.7109375 -1.8125 48.7734375 C-2.23144531 49.72653809 -2.65039062 50.67963867 -3.08203125 51.66162109 C-4.12180594 53.89159667 -4.12180594 53.89159667 -4 56 C3.26 56 10.52 56 18 56 C16.741875 52.803125 15.48375 49.60625 14.1875 46.3125 C13.79715576 45.31387939 13.40681152 44.31525879 13.00463867 43.28637695 C10.48509136 36.89940956 10.48509136 36.89940956 7 31 C6.67 31 6.34 31 6 31 Z " fill="#E7E2DD" transform="translate(367,1)"/>
<path d="M0 0 C18.48 0 36.96 0 56 0 C56 5.28 56 10.56 56 16 C55 17 55 17 51.48999023 17.11352539 C49.92951578 17.11336626 48.36903607 17.10767142 46.80859375 17.09765625 C45.98875504 17.0962413 45.16891632 17.09482635 44.32423401 17.09336853 C41.69528618 17.08775289 39.06642227 17.07519779 36.4375 17.0625 C34.65950643 17.05748701 32.88151154 17.05292376 31.10351562 17.04882812 C26.73561842 17.03862752 22.3679036 17.01905532 18 17 C18 22.94 18 28.88 18 35 C27.24 35 36.48 35 46 35 C46 40.28 46 45.56 46 51 C36.76 51 27.52 51 18 51 C18 59.25 18 67.5 18 76 C30.87 76 43.74 76 57 76 C57 81.61 57 87.22 57 93 C38.19 93 19.38 93 0 93 C0 62.31 0 31.62 0 0 Z " fill="#E7E3DD" transform="translate(194,1)"/>
<path d="M0 0 C0.92554687 0.48210938 1.85109375 0.96421875 2.8046875 1.4609375 C10.25264582 5.61744682 10.25264582 5.61744682 12 10 C10.56665422 11.62866544 9.12817021 13.25280994 7.6875 14.875 C6.48673828 16.23238281 6.48673828 16.23238281 5.26171875 17.6171875 C3 20 3 20 0 22 C-0.46148437 21.60167969 -0.92296875 21.20335938 -1.3984375 20.79296875 C-7.93522419 15.48344438 -15.25473379 12.23848709 -23.87109375 12.65625 C-32.26227078 14.01115565 -39.51329416 17.43088281 -45 24 C-49.96066359 31.91726857 -51.98751864 39.67944731 -51 49 C-48.30596159 58.50590754 -43.58968537 65.92566629 -35 71 C-27.13807686 74.26009225 -15.96973998 74.67824941 -8 71.4375 C-3.44893097 69.0085094 0.31533938 65.5742212 4 62 C7.13152248 63.42150009 9.58143518 65.13564224 12.1875 67.375 C12.88230469 67.96023437 13.57710938 68.54546875 14.29296875 69.1484375 C16.12401235 71.13451225 16.61074192 72.36234076 17 75 C5.22667885 86.71385993 -7.11079789 91.39972969 -23.48339844 91.37109375 C-34.62300995 91.07755985 -43.88093968 87.25110726 -53 81 C-54.3303125 80.13375 -54.3303125 80.13375 -55.6875 79.25 C-64.83315607 70.35152383 -70.02057265 58.7670989 -70.29248047 46.09521484 C-70.35844581 37.33791314 -70.18861441 29.91038635 -66 22 C-65.32904297 20.69675781 -65.32904297 20.69675781 -64.64453125 19.3671875 C-58.19098078 7.7750191 -48.98383291 0.80511795 -36.234375 -3.17578125 C-24.71696243 -5.7978217 -10.48919297 -5.64270117 0 0 Z " fill="#E7E2DE" transform="translate(70,4)"/>
<path d="M0 0 C0.763125 0.5775 1.52625 1.155 2.3125 1.75 C0.96320536 5.58663072 -0.76501025 8.40172569 -3.3125 11.5625 C-3.94414063 12.35269531 -4.57578125 13.14289062 -5.2265625 13.95703125 C-5.70867188 14.54871094 -6.19078125 15.14039062 -6.6875 15.75 C-9.00890349 14.83502341 -11.31546394 13.92484925 -13.57421875 12.86328125 C-20.12075305 9.95213259 -26.09036789 10.42860453 -32.75 12.875 C-34.97147608 14.73602645 -34.97147608 14.73602645 -35.8125 18.125 C-36.04071656 21.79731892 -36.04071656 21.79731892 -33.75390625 24.234375 C-29.92024207 27.37944472 -26.09925854 28.88218931 -21.5 30.625 C-11.74800754 34.53061645 -2.75763056 38.83449573 3.3125 47.75 C6.2061809 55.03054235 6.67134063 63.07938033 4.47265625 70.63671875 C0.86100974 78.57747691 -4.76001181 83.78017963 -12.75 87.1875 C-25.56567648 91.31699575 -37.84015471 88.85281432 -49.5 82.9375 C-54.41260152 80.34695533 -55.7748753 78.44514964 -59.6875 73.75 C-55.7275 69.79 -51.7675 65.83 -47.6875 61.75 C-46.511875 62.678125 -45.33625 63.60625 -44.125 64.5625 C-36.68222572 70.05690405 -29.94106649 72.03591796 -20.6875 70.75 C-18.05549606 69.40812158 -16.17825641 68.35229196 -14.3125 66.0625 C-13.36794892 62.56766099 -13.36825679 59.14423378 -14.6875 55.75 C-17.97213093 52.82572214 -21.1519583 50.89499318 -25.1796875 49.1640625 C-26.21480469 48.70773438 -27.24992188 48.25140625 -28.31640625 47.78125 C-30.47104432 46.84783279 -32.6272867 45.91810971 -34.78515625 44.9921875 C-43.08071154 41.3235941 -50.17685844 37.55827627 -53.96484375 28.94921875 C-56.45539763 21.36985749 -56.02702816 14.95562093 -52.6875 7.75 C-49.26332319 1.3908145 -44.45857187 -2.29998161 -37.875 -5.0625 C-25.2933243 -8.81757988 -10.96838662 -7.09272114 0 0 Z " fill="#E7E2DE" transform="translate(569.6875,6.25)"/>
<path d="M0 0 C0.763125 0.5775 1.52625 1.155 2.3125 1.75 C0.9869419 5.37276315 -0.63096955 8.38505348 -2.8125 11.5625 C-3.35132813 12.35269531 -3.89015625 13.14289062 -4.4453125 13.95703125 C-4.85523438 14.54871094 -5.26515625 15.14039062 -5.6875 15.75 C-10.6063253 13.78418675 -10.6063253 13.78418675 -12.79296875 12.86328125 C-19.7334491 10.19386573 -25.79994324 10.24258003 -32.75 12.9375 C-34.92835283 14.67982918 -34.92835283 14.67982918 -35.625 17.6875 C-35.69206745 20.97380523 -35.48402976 22.0683764 -33.6875 24.75 C-31.32236788 26.33575848 -31.32236788 26.33575848 -28.4375 27.625 C-27.36242187 28.14191406 -26.28734375 28.65882812 -25.1796875 29.19140625 C-22.85301069 30.22982241 -20.50293102 31.21731897 -18.1328125 32.15234375 C-8.68279031 35.88479234 -1.03919767 40.26540381 4.375 49.125 C6.59481361 57.7082793 7.34229861 65.59821784 3.3125 73.75 C-1.68048893 81.2394834 -8.04332409 85.58645532 -16.546875 88.35546875 C-30.74080977 90.97150417 -42.72838671 87.15474477 -54.5078125 79.3359375 C-56.6875 77.75 -56.6875 77.75 -58.6875 75.75 C-58.54876348 71.49541334 -55.52932675 69.29403586 -52.625 66.5 C-51.70589844 65.60796875 -50.78679687 64.7159375 -49.83984375 63.796875 C-49.12957031 63.12140625 -48.41929687 62.4459375 -47.6875 61.75 C-47.19121094 62.14832031 -46.69492187 62.54664062 -46.18359375 62.95703125 C-38.47033207 68.97249719 -32.58910281 71.07123035 -22.7734375 71.24609375 C-19.02899019 70.6441383 -17.38352108 69.36329119 -14.6875 66.75 C-13.11294261 63.60088521 -13.33950882 61.22991184 -13.6875 57.75 C-17.6764834 51.33516802 -23.02059308 49.58272642 -29.875 46.9375 C-40.0749975 42.75054247 -47.62918554 38.95683388 -53.8125 29.5 C-55.59084852 21.87850635 -56.2516484 13.45334385 -52.0703125 6.5234375 C-39.51905737 -9.57336993 -16.55909508 -10.70795987 0 0 Z " fill="#E7E2DE" transform="translate(317.6875,6.25)"/>
<path d="M0 0 C9.9 0 19.8 0 30 0 C35 5 35 5 35.59936523 7.61547852 C35.58591064 8.52740967 35.57245605 9.43934082 35.55859375 10.37890625 C35.55150391 11.38244141 35.54441406 12.38597656 35.53710938 13.41992188 C35.50423828 14.45697266 35.47136719 15.49402344 35.4375 16.5625 C35.43169922 17.60341797 35.42589844 18.64433594 35.41992188 19.71679688 C35.2853381 28.08790787 35.2853381 28.08790787 33 32 C33.66 32.66 34.32 33.32 35 34 C35.4857985 38.08438151 35.3704053 42.2025393 35.375 46.3125 C35.39949219 47.45396484 35.42398438 48.59542969 35.44921875 49.77148438 C35.47872394 58.18538128 35.47872394 58.18538128 33.1015625 62.23046875 C23.5100972 70.30655385 17.29691493 65 0 65 C0 43.55 0 22.1 0 0 Z M12 11 C12 15.95 12 20.9 12 26 C15.63 26 19.26 26 23 26 C23 21.05 23 16.1 23 11 C19.37 11 15.74 11 12 11 Z M12 37 C12 42.61 12 48.22 12 54 C15.63 54 19.26 54 23 54 C23 48.39 23 42.78 23 37 C19.37 37 15.74 37 12 37 Z " fill="#C5A458" transform="translate(289,111)"/>
<path d="M0 0 C0.84240234 -0.020625 1.68480469 -0.04125 2.55273438 -0.0625 C7.65822139 -0.09443424 11.35935424 0.23797723 15.6875 3.25 C19.78050602 8.03056753 19.12042182 13.50766389 19.0859375 19.46484375 C19.08880768 20.55334122 19.09167786 21.64183868 19.09463501 22.76332092 C19.09667383 25.06218995 19.09115677 27.3610764 19.07861328 29.65991211 C19.06257328 33.17145776 19.07846095 36.6818497 19.09765625 40.19335938 C19.09567348 42.42969003 19.09182912 44.66601997 19.0859375 46.90234375 C19.09201019 47.94937973 19.09808289 48.99641571 19.1043396 50.07518005 C19.05211394 55.51201566 18.87545861 59.61786338 15.6875 64.25 C11.03899881 67.34900079 6.2805658 66.61857454 0.8125 66.625 C-0.27675781 66.64949219 -1.36601563 66.67398438 -2.48828125 66.69921875 C-10.47959738 66.72856263 -10.47959738 66.72856263 -14.5078125 64.4140625 C-17.26325939 61.1099119 -17.44595623 58.38463524 -17.50537109 54.23120117 C-17.52143402 53.20971481 -17.53749695 52.18822845 -17.55404663 51.13578796 C-17.5985649 46.46935749 -17.63955275 41.80306778 -17.66259766 37.13647461 C-17.67916371 34.67576647 -17.70646189 32.21510657 -17.74462891 29.75463867 C-17.79940148 26.20466172 -17.82127244 22.65581137 -17.8359375 19.10546875 C-17.85860687 18.0084111 -17.88127625 16.91135345 -17.90463257 15.78105164 C-17.88106472 7.25586015 -17.88106472 7.25586015 -14.96728516 3.5715332 C-10.32585504 -0.48726383 -5.85226776 0.03533445 0 0 Z M-4.3125 12.25 C-4.3125 26.44 -4.3125 40.63 -4.3125 55.25 C-1.0125 55.25 2.2875 55.25 5.6875 55.25 C5.6875 41.06 5.6875 26.87 5.6875 12.25 C2.3875 12.25 -0.9125 12.25 -4.3125 12.25 Z " fill="#C5A359" transform="translate(117.3125,109.75)"/>
<path d="M0 0 C9.9 0 19.8 0 30 0 C35 5 35 5 35.63110352 8.15039062 C35.63001587 9.88579102 35.63001587 9.88579102 35.62890625 11.65625 C35.63083984 12.92597656 35.63277344 14.19570312 35.63476562 15.50390625 C35.61091797 16.82261719 35.58707031 18.14132813 35.5625 19.5 C35.57345703 20.81871094 35.58441406 22.13742188 35.59570312 23.49609375 C35.51191544 34.50020911 35.51191544 34.50020911 31 39 C30.34 39 29.68 39 29 39 C29.21205078 39.68102783 29.42410156 40.36205566 29.64257812 41.0637207 C30.59941455 44.1453123 31.5497775 47.22886288 32.5 50.3125 C32.83386719 51.38435547 33.16773438 52.45621094 33.51171875 53.56054688 C33.82753906 54.58857422 34.14335937 55.61660156 34.46875 56.67578125 C34.76201172 57.62364502 35.05527344 58.57150879 35.35742188 59.5480957 C36 62 36 62 36 65 C31.71 65 27.42 65 23 65 C21.99536465 61.39706668 20.99611006 57.79279025 20 54.1875 C19.71382812 53.16333984 19.42765625 52.13917969 19.1328125 51.08398438 C18.86210937 50.10107422 18.59140625 49.11816406 18.3125 48.10546875 C18.06113281 47.19949951 17.80976563 46.29353027 17.55078125 45.36010742 C17 43 17 43 17 40 C15.35 40 13.7 40 12 40 C12 48.25 12 56.5 12 65 C8.04 65 4.08 65 0 65 C0 43.55 0 22.1 0 0 Z M12 11 C12 16.61 12 22.22 12 28 C15.63 28 19.26 28 23 28 C23 22.39 23 16.78 23 11 C19.37 11 15.74 11 12 11 Z " fill="#C5A458" transform="translate(149,111)"/>
<path d="M0 0 C0.84240234 -0.020625 1.68480469 -0.04125 2.55273438 -0.0625 C7.67972251 -0.09456873 11.28248816 0.32698439 15.6875 3.25 C17.90280152 6.57295228 17.93974134 7.61366063 17.94628906 11.48413086 C17.95259338 12.55211411 17.95889771 13.62009735 17.96539307 14.72044373 C17.9613446 15.87359573 17.95729614 17.02674774 17.953125 18.21484375 C17.95599518 19.99212608 17.95599518 19.99212608 17.95892334 21.80531311 C17.96028528 24.31283785 17.95658825 26.82036964 17.94824219 29.32788086 C17.93755255 33.16861819 17.94813263 37.00888674 17.9609375 40.84960938 C17.95961572 43.2838552 17.95705295 45.71810073 17.953125 48.15234375 C17.95717346 49.30347153 17.96122192 50.4545993 17.96539307 51.64060974 C17.95908875 52.71174515 17.95278442 53.78288055 17.94628906 54.88647461 C17.94469788 55.82784775 17.94310669 56.76922089 17.94146729 57.73912048 C17.66991731 60.42383343 17.16016318 61.99977818 15.6875 64.25 C10.93784302 67.41643799 5.8989351 66.65919036 0.3125 66.6875 C-0.82445312 66.72037109 -1.96140625 66.75324219 -3.1328125 66.78710938 C-4.78023438 66.79774414 -4.78023438 66.79774414 -6.4609375 66.80859375 C-7.96406494 66.82877563 -7.96406494 66.82877563 -9.49755859 66.84936523 C-13.66834718 65.96130921 -14.92047999 64.80823712 -17.3125 61.25 C-18.05345757 57.1356162 -18.01290957 53.07766391 -17.9765625 48.90625 C-17.98134613 47.70440063 -17.98612976 46.50255127 -17.99105835 45.26428223 C-17.99445753 42.72581675 -17.98525412 40.18730751 -17.96435547 37.64892578 C-17.93759406 33.76365537 -17.96410683 29.88127431 -17.99609375 25.99609375 C-17.99278966 23.52863946 -17.98638345 21.06118696 -17.9765625 18.59375 C-17.98668365 17.43218384 -17.99680481 16.27061768 -18.00723267 15.07385254 C-17.89046108 7.03787808 -17.89046108 7.03787808 -14.95849609 3.04101562 C-10.07304422 -0.26583757 -5.68219572 0.0343076 0 0 Z M-5.3125 12.25 C-5.3125 26.44 -5.3125 40.63 -5.3125 55.25 C-1.6825 55.25 1.9475 55.25 5.6875 55.25 C5.6875 41.06 5.6875 26.87 5.6875 12.25 C2.0575 12.25 -1.5725 12.25 -5.3125 12.25 Z " fill="#C5A458" transform="translate(403.3125,109.75)"/>
<path d="M0 0 C0.83337891 -0.01611328 1.66675781 -0.03222656 2.52539062 -0.04882812 C7.60706117 -0.05284526 11.19555629 0.43045214 15.5625 3.3125 C17.77991537 6.63862306 17.82565537 7.74002638 17.86889648 11.62255859 C17.88488388 12.7073349 17.90087128 13.79211121 17.91734314 14.90975952 C17.92270584 16.08164825 17.92806854 17.25353699 17.93359375 18.4609375 C17.94713646 20.26795639 17.94713646 20.26795639 17.96095276 22.11148071 C17.97547134 24.66186023 17.98434597 27.21227714 17.98803711 29.76269531 C17.99993249 33.66535181 18.04910583 37.56642737 18.09960938 41.46875 C18.10907334 43.94530477 18.1163085 46.42186927 18.12109375 48.8984375 C18.14062607 50.06627777 18.16015839 51.23411804 18.18028259 52.43734741 C18.13560311 60.45825804 18.13560311 60.45825804 15.39111328 64.54907227 C12.20040092 66.53824155 10.48081013 66.94412592 6.74609375 66.94140625 C5.10543945 66.94430664 5.10543945 66.94430664 3.43164062 66.94726562 C2.29919922 66.92341797 1.16675781 66.89957031 0 66.875 C-1.13630859 66.88595703 -2.27261719 66.89691406 -3.44335938 66.90820312 C-11.81145431 66.83414919 -11.81145431 66.83414919 -14.73022461 64.40209961 C-17.35602604 61.18828087 -17.56837867 59.38491874 -17.59863281 55.29956055 C-17.60824036 54.25475021 -17.6178479 53.20993988 -17.62774658 52.13346863 C-17.63199646 51.00016617 -17.63624634 49.86686371 -17.640625 48.69921875 C-17.64632507 47.53751663 -17.65202515 46.37581451 -17.65789795 45.1789093 C-17.66735796 42.71669427 -17.67388589 40.25446652 -17.67773438 37.79223633 C-17.6874331 34.02597927 -17.71844508 30.26026935 -17.75 26.49414062 C-17.75653055 24.10416991 -17.76178082 21.71419529 -17.765625 19.32421875 C-17.7779718 18.19698898 -17.7903186 17.06975922 -17.80303955 15.90837097 C-17.80003845 14.85410416 -17.79703735 13.79983734 -17.79394531 12.71362305 C-17.79759094 11.78921921 -17.80123657 10.86481537 -17.80499268 9.91239929 C-17.35970437 6.76211952 -16.28146665 4.8836054 -14.4375 2.3125 C-10.02600897 -0.40668721 -5.02399534 -0.01933793 0 0 Z M-5.4375 12.3125 C-5.4375 26.5025 -5.4375 40.6925 -5.4375 55.3125 C-1.8075 55.3125 1.8225 55.3125 5.5625 55.3125 C5.5625 41.1225 5.5625 26.9325 5.5625 12.3125 C1.9325 12.3125 -1.6975 12.3125 -5.4375 12.3125 Z " fill="#C5A458" transform="translate(354.4375,109.6875)"/>
<path d="M0 0 C3.96 0 7.92 0 12 0 C12.33 8.25 12.66 16.5 13 25 C16.96 16.75 20.92 8.5 25 0 C29.29 0 33.58 0 38 0 C36.65892854 4.02321438 35.46961194 7.28230382 33.58203125 10.96875 C33.13279297 11.86980469 32.68355469 12.77085938 32.22070312 13.69921875 C31.27952461 15.57113275 30.32893293 17.43834259 29.36914062 19.30078125 C28.92376953 20.20183594 28.47839844 21.10289062 28.01953125 22.03125 C27.40235229 23.24651367 27.40235229 23.24651367 26.77270508 24.48632812 C25.04822084 30.09621429 27.71548214 35.19783714 29.94140625 40.33203125 C30.22853989 41.00924728 30.51567352 41.68646332 30.81150818 42.38420105 C31.72239431 44.5296316 32.64203198 46.67116522 33.5625 48.8125 C34.48486297 50.97236061 35.40538977 53.13298452 36.32420349 55.2943573 C36.89490111 56.63533052 37.46796913 57.97529782 38.04359436 59.31416321 C40 63.89004526 40 63.89004526 40 65 C35.38 65 30.76 65 26 65 C22.40565066 58.21067348 19.67634304 51.19541408 17 44 C13.43221644 48.65363073 12.76411345 51.8209184 12.4375 57.625 C12.39431641 58.33140625 12.35113281 59.0378125 12.30664062 59.765625 C12.20055249 61.51018537 12.09977111 63.25506697 12 65 C8.04 65 4.08 65 0 65 C0 43.55 0 22.1 0 0 Z " fill="#C4A459" transform="translate(434,111)"/>
<path d="M0 0 C0.84240234 -0.020625 1.68480469 -0.04125 2.55273438 -0.0625 C7.67972251 -0.09456873 11.28248816 0.32698439 15.6875 3.25 C18.14141569 6.93087353 17.91552759 9.69355588 17.8125 13.9375 C17.80347656 14.63939453 17.79445312 15.34128906 17.78515625 16.06445312 C17.76163704 17.79311525 17.72576713 19.52160145 17.6875 21.25 C13.7275 21.25 9.7675 21.25 5.6875 21.25 C5.6875 18.28 5.6875 15.31 5.6875 12.25 C2.0575 12.25 -1.5725 12.25 -5.3125 12.25 C-4.92100314 17.80874526 -3.95170695 20.34404306 0.08984375 24.16796875 C0.97994141 25.02970703 1.87003906 25.89144531 2.78710938 26.77929688 C3.72361328 27.65650391 4.66011719 28.53371094 5.625 29.4375 C7.47167764 31.19739528 9.31431186 32.96154579 11.15234375 34.73046875 C11.973396 35.50285889 12.79444824 36.27524902 13.64038086 37.07104492 C17.93741058 41.64480643 17.99952097 45.6616083 17.9375 51.75 C17.94910156 52.88888672 17.94910156 52.88888672 17.9609375 54.05078125 C17.93592397 61.1921434 17.93592397 61.1921434 15.6875 64.25 C10.93784302 67.41643799 5.8989351 66.65919036 0.3125 66.6875 C-0.82445313 66.72037109 -1.96140625 66.75324219 -3.1328125 66.78710938 C-11.36605148 66.84025822 -11.36605148 66.84025822 -15.58203125 64.2109375 C-17.73482995 60.52736771 -17.8822491 57.57327405 -17.625 53.4375 C-17.60244141 52.74462891 -17.57988281 52.05175781 -17.55664062 51.33789062 C-17.49812661 49.64098427 -17.4084548 47.94520139 -17.3125 46.25 C-13.3525 46.25 -9.3925 46.25 -5.3125 46.25 C-5.3125 49.22 -5.3125 52.19 -5.3125 55.25 C-1.6825 55.25 1.9475 55.25 5.6875 55.25 C5.88892743 50.32509926 5.69133148 47.56355492 2.65234375 43.58691406 C-0.08998567 40.7577374 -2.91586732 38.04361787 -5.8125 35.375 C-7.76820631 33.53142845 -9.71226001 31.67630294 -11.65625 29.8203125 C-12.52443359 29.01352051 -13.39261719 28.20672852 -14.28710938 27.37548828 C-17.9050679 23.57872515 -17.58894981 19.34730517 -17.6875 14.375 C-17.72488281 13.66730469 -17.76226563 12.95960937 -17.80078125 12.23046875 C-17.86788938 8.2263501 -17.49196677 6.47628419 -14.9765625 3.3046875 C-10.20165416 -0.37801307 -5.76592898 0.03481316 0 0 Z " fill="#C5A458" transform="translate(21.3125,109.75)"/>
<path d="M0 0 C0.83337891 -0.01611328 1.66675781 -0.03222656 2.52539062 -0.04882812 C7.60706117 -0.05284526 11.19555629 0.43045214 15.5625 3.3125 C18.01641569 6.99337353 17.79052759 9.75605588 17.6875 14 C17.67847656 14.70189453 17.66945313 15.40378906 17.66015625 16.12695312 C17.63663704 17.85561525 17.60076713 19.58410145 17.5625 21.3125 C13.6025 21.3125 9.6425 21.3125 5.5625 21.3125 C5.5625 18.3425 5.5625 15.3725 5.5625 12.3125 C1.9325 12.3125 -1.6975 12.3125 -5.4375 12.3125 C-5.06014653 18.04465791 -3.91648342 20.56427412 0.21875 24.51953125 C1.15847656 25.43541016 2.09820312 26.35128906 3.06640625 27.29492188 C4.06454066 28.23887746 5.06324524 29.18223048 6.0625 30.125 C8.01494443 32.0018639 9.96010486 33.88612193 11.90625 35.76953125 C12.77443359 36.59428955 13.64261719 37.41904785 14.53710938 38.26879883 C18.48643393 42.25382725 17.85017375 46.28619073 17.9375 51.625 C17.99357422 52.90793945 17.99357422 52.90793945 18.05078125 54.21679688 C18.10812623 58.32970621 17.88330048 60.74858166 15.8203125 64.375 C10.73284111 67.40064246 5.87193956 67.07635263 0.0625 67 C-1.06542969 67.02771484 -2.19335938 67.05542969 -3.35546875 67.08398438 C-11.1846141 67.06082122 -11.1846141 67.06082122 -14.32104492 65.1875 C-16.82917004 62.53586303 -17.44903357 60.2263212 -17.92578125 56.6640625 C-17.86777344 55.43429688 -17.80976563 54.20453125 -17.75 52.9375 C-17.70488281 51.69226563 -17.65976563 50.44703125 -17.61328125 49.1640625 C-17.55527344 48.22304687 -17.49726563 47.28203125 -17.4375 46.3125 C-13.4775 46.3125 -9.5175 46.3125 -5.4375 46.3125 C-5.4375 49.2825 -5.4375 52.2525 -5.4375 55.3125 C-1.8075 55.3125 1.8225 55.3125 5.5625 55.3125 C5.71362505 50.50087338 5.5802909 47.66224096 2.63720703 43.75927734 C0.04276731 41.07789602 -2.62755305 38.52432325 -5.375 36 C-7.22147372 34.25816404 -9.0640996 32.51223758 -10.90234375 30.76171875 C-11.723396 30.00205811 -12.54444824 29.24239746 -13.39038086 28.4597168 C-17.51031009 24.13833605 -17.73243201 20.78370001 -17.75 14.875 C-17.76675781 13.57691406 -17.78351563 12.27882813 -17.80078125 10.94140625 C-17.41645378 7.10226409 -16.89314964 5.26034957 -14.4375 2.3125 C-10.02600897 -0.40668721 -5.02399534 -0.01933793 0 0 Z " fill="#C5A459" transform="translate(257.4375,109.6875)"/>
<path d="M0 0 C9.9 0 19.8 0 30 0 C35.63268 6.759216 35.63268 6.759216 35.62890625 12.53515625 C35.63083984 13.75654297 35.63277344 14.97792969 35.63476562 16.23632812 C35.61091797 17.49896484 35.58707031 18.76160156 35.5625 20.0625 C35.57345703 21.32900391 35.58441406 22.59550781 35.59570312 23.90039062 C35.51306116 34.32980691 35.51306116 34.32980691 31 39 C27.69428083 40.65285959 24.004622 40.1005118 20.375 40.0625 C17.61125 40.041875 14.8475 40.02125 12 40 C12 48.25 12 56.5 12 65 C8.04 65 4.08 65 0 65 C0 43.55 0 22.1 0 0 Z M12 11 C12 16.61 12 22.22 12 28 C15.63 28 19.26 28 23 28 C23 22.39 23 16.78 23 11 C19.37 11 15.74 11 12 11 Z " fill="#C5A359" transform="translate(53,111)"/>
<path d="M0 0 C11.88 0 23.76 0 36 0 C36 3.63 36 7.26 36 11 C32.04 11 28.08 11 24 11 C24 28.82 24 46.64 24 65 C20.04 65 16.08 65 12 65 C12 47.18 12 29.36 12 11 C8.04 11 4.08 11 0 11 C0 7.37 0 3.74 0 0 Z " fill="#C5A459" transform="translate(195,111)"/>
<path d="M0 0 C2.14373717 5.24024641 2.14373717 5.24024641 1.5625 8.3125 C0 10 0 10 -3.4375 10.9375 C-7 11 -7 11 -8.9375 9.9375 C-10.47555213 7.13281671 -10.39310741 5.14485925 -10 2 C-7.64463991 -2.2950684 -4.23605512 -0.87918125 0 0 Z M-2 2 C-2.33 3.32 -2.66 4.64 -3 6 C-2.01 6 -1.02 6 0 6 C-0.66 4.68 -1.32 3.36 -2 2 Z M-8 3 C-7 7 -7 7 -7 7 Z M-5 7 C-5 7.66 -5 8.32 -5 9 C-4.34 8.67 -3.68 8.34 -3 8 C-3.66 7.67 -4.32 7.34 -5 7 Z " fill="#E7E2DE" transform="translate(584,83)"/>
</svg>
