<?xml version="1.0" encoding="UTF-8"?>
<svg version="1.1" xmlns="http://www.w3.org/2000/svg" width="539" height="144">
<path d="M0 0 C47.85 0 95.7 0 145 0 C145 47.52 145 95.04 145 144 C97.15 144 49.3 144 0 144 C0 96.48 0 48.96 0 0 Z " fill="#60B511" transform="translate(0,0)"/>
<path d="M0 0 C1.8125 0.0625 1.8125 0.0625 4 1 C6.93355173 4.66693966 8 6.23130534 8 11 C9.918125 10.9690625 9.918125 10.9690625 11.875 10.9375 C15.75 10.875 15.75 10.875 18 12 C17.8125 13.8125 17.8125 13.8125 17 16 C14.4375 17.75 14.4375 17.75 12 19 C12.50427947 23.41244536 14.01327751 25.74974317 17 29 C19.88720119 31.36721366 19.88720119 31.36721366 23.5 30.75 C27.09120499 30.20500944 27.09120499 30.20500944 30 28 C30.515625 28.515625 31.03125 29.03125 31.5625 29.5625 C34.02185624 31.29103308 34.02185624 31.29103308 37.4375 31 C41.57704804 29.8380216 43.25643201 28.24239854 46 25 C45.175 24.236875 44.35 23.47375 43.5 22.6875 C41 20 41 20 41 17 C47.75 16.875 47.75 16.875 50 18 C50.37125 16.88625 50.37125 16.88625 50.75 15.75 C52.1135157 12.75026545 53.45872215 11.07922733 56 9 C56.99 9 57.98 9 59 9 C58.09708758 11.78397995 57.17588384 14.54983779 56.1105957 17.27636719 C52.79784506 25.8562697 51.01537927 34.59384918 49.20117188 43.58789062 C48.95818359 44.74353516 48.71519531 45.89917969 48.46484375 47.08984375 C48.254646 48.13003662 48.04444824 49.17022949 47.82788086 50.24194336 C46.96984998 53.10044376 46.0379611 54.83290205 44 57 C43.34 57 42.68 57 42 57 C42 54.69 42 52.38 42 50 C24.44637954 49.35253039 4.30705685 50.26087643 -10 62 C-11.23075102 63.9172483 -11.23075102 63.9172483 -11 66 C-9.6483633 68.24755753 -9.6483633 68.24755753 -8 70 C-12.79435825 69.58905501 -15.02473684 67.52861399 -18 64 C-21.166927 60.1300281 -24.28105568 56.21863744 -27.34375 52.265625 C-31.69118697 46.80195421 -37.12889701 42.53108212 -42.5 38.125 C-43.7375 37.073125 -43.7375 37.073125 -45 36 C-45 35.67 -45 35.34 -45 35 C-39.28341664 34.54267333 -36.51350747 35.47726246 -32 39 C-32 38.34 -32 37.68 -32 37 C-29.4385343 34.70351351 -28.52032428 34 -25 34 C-24.91995518 37.5219721 -24.95994298 40.61981469 -26 44 C-22.40735548 45.19754817 -19.77282526 45.33094958 -16 45 C-13.31341986 42.89430205 -11.89932116 40.84898175 -10 38 C-7.66666667 38 -5.33333333 38 -3 38 C0.00203457 36.03314976 0.97456733 33.36927877 2 30 C2.44255741 27.00770843 2.7504676 24.01408877 3 21 C2.01 21.495 2.01 21.495 1 22 C-3.05142119 22.25860135 -4.54337669 22.30441554 -8 20 C-6.63016497 16.83884224 -6.0109362 16.0072908 -3 14 C-2.01 14 -1.02 14 0 14 C-0.495 13.01 -0.495 13.01 -1 12 C-1.09584979 10.1478437 -1.12983606 8.29212847 -1.125 6.4375 C-1.12757812 5.44621094 -1.13015625 4.45492188 -1.1328125 3.43359375 C-1 1 -1 1 0 0 Z " fill="#FBFDF9" transform="translate(61,15)"/>
<path d="M0 0 C5.92671498 5.7950102 8.12083402 11.65307326 8.4375 19.8125 C8.15566982 29.12463872 5.26803914 36.6377338 -1.2265625 43.3515625 C-10.62938572 52.09163166 -22.19371118 52.71637878 -34.453125 52.34765625 C-42.72761519 51.87185601 -49.67795867 49.27921199 -55.6953125 43.4921875 C-59.15017414 39.5408188 -59.51069362 35.2447609 -59.375 30.15625 C-59 28 -59 28 -56.9375 25 C-53.42070506 22.60558642 -51.24773336 22 -47 22 C-43.63874007 23.34450397 -42.3723277 24.29080438 -40.6875 27.5 C-40 30 -40 30 -40 33 C-42.475 33.495 -42.475 33.495 -45 34 C-45.05749557 36.91630113 -45.05749557 36.91630113 -44 40 C-39.05692934 42.69220813 -34.70326651 43.55270481 -29.0625 43.5 C-28.0091748 43.49250732 -28.0091748 43.49250732 -26.93457031 43.48486328 C-21.12058946 43.28908362 -17.1022333 42.15635247 -13 38 C-6.95804939 30.25390947 -6.98736555 21.4450756 -8 12 C-9.00892269 8.43678036 -10.17575786 6.37398354 -13 4 C-15.26811626 3.20977373 -15.26811626 3.20977373 -17.69140625 2.80859375 C-18.49908447 2.65060303 -19.3067627 2.4926123 -20.13891602 2.32983398 C-20.75307373 2.22098877 -21.36723145 2.11214355 -22 2 C-21.90657935 6.94825616 -21.8005124 11.89601634 -21.68261719 16.84375 C-21.64428896 18.52759329 -21.60944288 20.21151955 -21.578125 21.89550781 C-21.53255713 24.31345306 -21.47455077 26.73082528 -21.4140625 29.1484375 C-21.40251129 29.9036972 -21.39096008 30.65895691 -21.37905884 31.43710327 C-21.39669934 35.67825198 -21.39669934 35.67825198 -19 39 C-24.66688302 41.51861468 -30.90058391 41.81853636 -37 41 C-38.86328125 39.48046875 -38.86328125 39.48046875 -40 38 C-39.01 37.505 -39.01 37.505 -38 37 C-37.67 25.78 -37.34 14.56 -37 3 C-25.08554389 -2.29531382 -11.84491914 -8.02960834 0 0 Z " fill="#FBFDF9" transform="translate(98,71)"/>
<path d="M0 0 C3.691875 -0.103125 7.38375 -0.20625 11.1875 -0.3125 C12.92036255 -0.38078003 12.92036255 -0.38078003 14.68823242 -0.45043945 C19.42242386 -0.51459961 22.17636002 -0.54173641 26.20703125 2.109375 C28.34336226 5.55356878 28.61207293 7.53254417 28.5 11.5625 C28.4896875 12.67753906 28.479375 13.79257813 28.46875 14.94140625 C27.97082041 18.19039685 27.19609129 19.61116666 25 22 C25.72703125 22.52980469 25.72703125 22.52980469 26.46875 23.0703125 C28.73731901 25.92917243 28.4695409 28.27321162 28.5 31.875 C28.5309375 33.08929688 28.561875 34.30359375 28.59375 35.5546875 C28 39 28 39 26.20703125 41.92578125 C21.3367936 45.07571571 16.84456441 44.53540546 11.1875 44.3125 C7.495625 44.209375 3.80375 44.10625 0 44 C0 29.48 0 14.96 0 0 Z M9 7 C9 10.63 9 14.26 9 18 C12.41656024 18.16677282 12.41656024 18.16677282 16 18 C18.1702792 16.2412636 18.1702792 16.2412636 18.23046875 14.08984375 C18.53754032 10.23314049 18.53754032 10.23314049 17 7 C14.32941149 6.85884839 11.67567762 6.95752893 9 7 Z M9 25 C9 28.63 9 32.26 9 36 C13.00254456 36.09181134 13.00254456 36.09181134 17 36 C18.2245178 34.99530377 18.2245178 34.99530377 18.1328125 32.96875 C18.13023437 32.1540625 18.12765625 31.339375 18.125 30.5 C18.12757813 29.6853125 18.13015625 28.870625 18.1328125 28.03125 C18.2245178 26.00469623 18.2245178 26.00469623 17 25 C14.32941149 24.85884839 11.67567762 24.95752893 9 25 Z " fill="#60B510" transform="translate(395,77)"/>
<path d="M0 0 C5.7853125 -0.1546875 5.7853125 -0.1546875 11.6875 -0.3125 C13.4986731 -0.38078003 13.4986731 -0.38078003 15.34643555 -0.45043945 C20.12191064 -0.51242745 23.11569719 -0.54935579 27.23828125 2.01171875 C29.45800259 5.77687801 29.67022174 8.87719373 29.5 13.125 C29.50386719 14.19814453 29.50386719 14.19814453 29.5078125 15.29296875 C29.40998882 20.52653576 29.40998882 20.52653576 27.4609375 22.77734375 C26.73777344 23.38255859 26.73777344 23.38255859 26 24 C26.24858678 30.83613635 28.25444183 37.41298803 30 44 C26.7 44 23.4 44 20 44 C17.91864693 38.70201036 16.28708387 33.54436129 15 28 C13.35 27.67 11.7 27.34 10 27 C10 32.61 10 38.22 10 44 C6.7 44 3.4 44 0 44 C0 29.48 0 14.96 0 0 Z M10 7 C10 10.96 10 14.92 10 19 C14.00254456 19.09181134 14.00254456 19.09181134 18 19 C19.25173779 17.96966611 19.25173779 17.96966611 19.1328125 15.75 C19.13023437 14.8425 19.12765625 13.935 19.125 13 C19.12757813 12.0925 19.13015625 11.185 19.1328125 10.25 C19.25173779 8.03033389 19.25173779 8.03033389 18 7 C15.32941149 6.85884839 12.67567762 6.95752893 10 7 Z " fill="#60B510" transform="translate(286,77)"/>
<path d="M0 0 C0.81855469 -0.00644531 1.63710938 -0.01289062 2.48046875 -0.01953125 C3.32222656 -0.00019531 4.16398437 0.01914063 5.03125 0.0390625 C5.87300781 0.01972656 6.71476562 0.00039062 7.58203125 -0.01953125 C8.40058594 -0.01308594 9.21914063 -0.00664063 10.0625 0 C11.16948242 0.00845947 11.16948242 0.00845947 12.29882812 0.01708984 C15.82482073 1.03894903 17.31523588 2.78128307 19.53125 5.6640625 C20.03186116 8.45690602 20.23543481 10.63033299 20.1953125 13.4140625 C20.20009613 14.14979492 20.20487976 14.88552734 20.20980835 15.64355469 C20.2131988 17.19338123 20.20405592 18.74328011 20.18310547 20.29296875 C20.15632002 22.65788036 20.18287417 25.01804752 20.21484375 27.3828125 C20.21153949 28.89323958 20.2051329 30.40366373 20.1953125 31.9140625 C20.20543365 32.6162793 20.21555481 33.31849609 20.22598267 34.04199219 C20.13594754 37.83623936 19.60491279 39.56823568 17.26904297 42.60693359 C14.5080822 44.68147038 13.43091867 45.30238381 10.0625 45.328125 C9.24394531 45.33457031 8.42539062 45.34101562 7.58203125 45.34765625 C6.74027344 45.32832031 5.89851563 45.30898437 5.03125 45.2890625 C4.18949219 45.30839844 3.34773438 45.32773438 2.48046875 45.34765625 C1.25263672 45.33798828 1.25263672 45.33798828 0 45.328125 C-1.10698242 45.31966553 -1.10698242 45.31966553 -2.23632812 45.31103516 C-5.76232073 44.28917597 -7.25273588 42.54684193 -9.46875 39.6640625 C-9.96936116 36.87121898 -10.17293481 34.69779201 -10.1328125 31.9140625 C-10.13759613 31.17833008 -10.14237976 30.44259766 -10.14730835 29.68457031 C-10.1506988 28.13474377 -10.14155592 26.58484489 -10.12060547 25.03515625 C-10.09382002 22.67024464 -10.12037417 20.31007748 -10.15234375 17.9453125 C-10.14903949 16.43488542 -10.1426329 14.92446127 -10.1328125 13.4140625 C-10.14293365 12.7118457 -10.15305481 12.00962891 -10.16348267 11.28613281 C-10.07344754 7.49188564 -9.54241279 5.75988932 -7.20654297 2.72119141 C-4.4455822 0.64665462 -3.36841867 0.02574119 0 0 Z M0.53125 9.6640625 C0.43153214 11.57864532 0.40044411 13.49688567 0.3984375 15.4140625 C0.39714844 16.579375 0.39585937 17.7446875 0.39453125 18.9453125 C0.39839844 20.1725 0.40226562 21.3996875 0.40625 22.6640625 C0.40238281 23.89125 0.39851563 25.1184375 0.39453125 26.3828125 C0.39582031 27.548125 0.39710938 28.7134375 0.3984375 29.9140625 C0.39956543 30.99171875 0.40069336 32.069375 0.40185547 33.1796875 C0.25032629 35.60626247 0.25032629 35.60626247 1.53125 36.6640625 C5.03125 36.83072917 5.03125 36.83072917 8.53125 36.6640625 C10.30574594 34.88956656 9.66155072 32.31388989 9.6640625 29.9140625 C9.66535156 28.74875 9.66664063 27.5834375 9.66796875 26.3828125 C9.66410156 25.155625 9.66023438 23.9284375 9.65625 22.6640625 C9.66011719 21.436875 9.66398437 20.2096875 9.66796875 18.9453125 C9.66667969 17.78 9.66539062 16.6146875 9.6640625 15.4140625 C9.66293457 14.33640625 9.66180664 13.25875 9.66064453 12.1484375 C9.81217371 9.72186253 9.81217371 9.72186253 8.53125 8.6640625 C4.2149975 8.12140137 4.2149975 8.12140137 0.53125 9.6640625 Z " fill="#60B510" transform="translate(480.46875,76.3359375)"/>
<path d="M0 0 C0.81855469 -0.00644531 1.63710938 -0.01289062 2.48046875 -0.01953125 C3.32222656 -0.00019531 4.16398437 0.01914063 5.03125 0.0390625 C5.87300781 0.01972656 6.71476562 0.00039062 7.58203125 -0.01953125 C8.40058594 -0.01308594 9.21914063 -0.00664063 10.0625 0 C11.16948242 0.00845947 11.16948242 0.00845947 12.29882812 0.01708984 C15.82482073 1.03894903 17.31523588 2.78128307 19.53125 5.6640625 C20.03186116 8.45690602 20.23543481 10.63033299 20.1953125 13.4140625 C20.20009613 14.14979492 20.20487976 14.88552734 20.20980835 15.64355469 C20.2131988 17.19338123 20.20405592 18.74328011 20.18310547 20.29296875 C20.15632002 22.65788036 20.18287417 25.01804752 20.21484375 27.3828125 C20.21153949 28.89323958 20.2051329 30.40366373 20.1953125 31.9140625 C20.20543365 32.6162793 20.21555481 33.31849609 20.22598267 34.04199219 C20.13569486 37.84688743 19.60769842 39.56537841 17.25317383 42.60473633 C13.27380777 45.61540569 10.42666735 45.44230299 5.59375 45.3515625 C4.41522461 45.39313477 4.41522461 45.39313477 3.21289062 45.43554688 C-0.66548896 45.41931935 -3.81526699 44.98530008 -6.9921875 42.65625 C-11.19052323 37.76194514 -10.31495696 30.47775582 -10.19604492 24.38696289 C-10.15627648 22.10308313 -10.1753767 19.82499443 -10.20117188 17.54101562 C-10.1936136 16.08070679 -10.18266094 14.62041074 -10.16796875 13.16015625 C-10.15596436 11.84200928 -10.14395996 10.5238623 -10.1315918 9.16577148 C-9.07309425 3.57386344 -5.85045661 0.04470873 0 0 Z M0.53125 9.6640625 C0.27823761 13.80368533 0.34602451 17.95512246 0.34375 22.1015625 C0.33150391 23.27267578 0.31925781 24.44378906 0.30664062 25.65039062 C0.30470703 26.76736328 0.30277344 27.88433594 0.30078125 29.03515625 C0.29667236 30.06568115 0.29256348 31.09620605 0.28833008 32.15795898 C0.27999932 34.83653654 0.27999932 34.83653654 2.53125 36.6640625 C5.57307893 36.91411636 5.57307893 36.91411636 8.53125 36.6640625 C10.30574594 34.88956656 9.66155072 32.31388989 9.6640625 29.9140625 C9.66535156 28.74875 9.66664063 27.5834375 9.66796875 26.3828125 C9.66410156 25.155625 9.66023438 23.9284375 9.65625 22.6640625 C9.66011719 21.436875 9.66398437 20.2096875 9.66796875 18.9453125 C9.66667969 17.78 9.66539062 16.6146875 9.6640625 15.4140625 C9.66293457 14.33640625 9.66180664 13.25875 9.66064453 12.1484375 C9.81217371 9.72186253 9.81217371 9.72186253 8.53125 8.6640625 C4.2149975 8.12140137 4.2149975 8.12140137 0.53125 9.6640625 Z " fill="#60B510" transform="translate(256.46875,76.3359375)"/>
<path d="M0 0 C0.7940625 -0.01933594 1.588125 -0.03867188 2.40625 -0.05859375 C6.65488832 -0.02318843 8.52915932 0.27866918 12.04296875 2.86328125 C15.02371521 7.06964402 14.37562578 9.59161458 14 14.625 C10.7 14.625 7.4 14.625 4 14.625 C3.34 12.645 2.68 10.665 2 8.625 C0.35 8.955 -1.3 9.285 -3 9.625 C-3.33 12.265 -3.66 14.905 -4 17.625 C-3.11957031 17.56699219 -2.23914063 17.50898437 -1.33203125 17.44921875 C0.41013672 17.38154297 0.41013672 17.38154297 2.1875 17.3125 C3.33605469 17.25449219 4.48460937 17.19648437 5.66796875 17.13671875 C9 17.625 9 17.625 11.88671875 19.61328125 C14.67855116 23.59202947 14.74793756 26.37961026 14.625 31.125 C14.65400391 32.24455078 14.65400391 32.24455078 14.68359375 33.38671875 C14.64870484 37.3291661 14.24299482 39.25714618 12.0234375 42.6171875 C7.91771183 45.34372884 4.82536504 45.36750077 0 45.25 C-0.7940625 45.26933594 -1.588125 45.28867188 -2.40625 45.30859375 C-6.65488832 45.27318843 -8.52915932 44.97133082 -12.04296875 42.38671875 C-15.02371521 38.18035598 -14.37562578 35.65838542 -14 30.625 C-10.7 30.625 -7.4 30.625 -4 30.625 C-3.67 32.275 -3.34 33.925 -3 35.625 C-1.02 35.625 0.96 35.625 3 35.625 C3 32.985 3 30.345 3 27.625 C2.10796875 27.59921875 1.2159375 27.5734375 0.296875 27.546875 C-1.45882813 27.46179688 -1.45882813 27.46179688 -3.25 27.375 C-4.41015625 27.32859375 -5.5703125 27.2821875 -6.765625 27.234375 C-10 26.625 -10 26.625 -12.38671875 25.10546875 C-14.68521347 21.57146355 -14.62171224 18.26617873 -14.5625 14.1875 C-14.58634766 13.43662109 -14.61019531 12.68574219 -14.63476562 11.91210938 C-14.6243002 7.94571427 -14.25628555 6.01424954 -12.02734375 2.62890625 C-7.91862488 -0.09080057 -4.82464192 -0.11748316 0 0 Z " fill="#60B510" transform="translate(371,76.375)"/>
<path d="M0 0 C0.85464844 -0.01546875 1.70929688 -0.0309375 2.58984375 -0.046875 C6.46340098 -0.02270304 8.79645679 0.03523509 12.078125 2.203125 C13.78982397 4.96817718 13.91973373 6.5250591 13.75 9.75 C13.71390625 10.64203125 13.6778125 11.5340625 13.640625 12.453125 C13.57101563 13.46632813 13.57101563 13.46632813 13.5 14.5 C10.53 14.5 7.56 14.5 4.5 14.5 C3.84 12.52 3.18 10.54 2.5 8.5 C0.83388095 8.457279 -0.83382885 8.45936168 -2.5 8.5 C-3.91577477 9.68424326 -3.91577477 9.68424326 -3.5625 13.0625 C-3.541875 14.196875 -3.52125 15.33125 -3.5 16.5 C-2.61957031 16.51417969 -1.73914063 16.52835938 -0.83203125 16.54296875 C0.91013672 16.61451172 0.91013672 16.61451172 2.6875 16.6875 C4.41033203 16.73970703 4.41033203 16.73970703 6.16796875 16.79296875 C10.49379358 17.71087531 11.94745967 18.90002168 14.5 22.5 C15.19480037 25.36318833 15.2010174 28.06572843 15.125 31 C15.15400391 32.11955078 15.15400391 32.11955078 15.18359375 33.26171875 C15.1488897 37.18327628 14.73608859 39.13685973 12.5546875 42.4921875 C8.31238391 45.28060699 4.9727242 45.23922797 0 45.125 C-0.84175781 45.14433594 -1.68351563 45.16367188 -2.55078125 45.18359375 C-6.92131008 45.14918014 -8.95523155 44.89663574 -12.57421875 42.26171875 C-15.51133781 38.04966363 -14.87438555 35.51676634 -14.5 30.5 C-11.2 30.5 -7.9 30.5 -4.5 30.5 C-4.17 32.15 -3.84 33.8 -3.5 35.5 C-1.19 35.5 1.12 35.5 3.5 35.5 C3.5 32.86 3.5 30.22 3.5 27.5 C2.60796875 27.47421875 1.7159375 27.4484375 0.796875 27.421875 C-0.95882812 27.33679688 -0.95882812 27.33679688 -2.75 27.25 C-3.91015625 27.20359375 -5.0703125 27.1571875 -6.265625 27.109375 C-9.5 26.5 -9.5 26.5 -11.890625 25.015625 C-14.29753768 21.25336343 -14.0838785 17.87566154 -14 13.5 C-14.01546875 12.69304687 -14.0309375 11.88609375 -14.046875 11.0546875 C-14.02321839 7.47071058 -13.85078702 5.11769019 -12.0625 1.96875 C-8.12491858 -0.28815642 -4.45961451 -0.080717 0 0 Z " fill="#60B510" transform="translate(186.5,76.5)"/>
<path d="M0 0 C1.23459961 -0.00290039 1.23459961 -0.00290039 2.49414062 -0.00585938 C3.34041016 0.01798828 4.18667969 0.04183594 5.05859375 0.06640625 C6.33379883 0.0499707 6.33379883 0.0499707 7.63476562 0.03320312 C13.73648699 0.10498808 13.73648699 0.10498808 16.73388672 2.17236328 C19.13935414 5.52562086 19.08956967 8.51993358 19.0625 12.5 C19.07179787 13.63901512 19.07179787 13.63901512 19.08128357 14.80104065 C19.08837376 16.40388713 19.08522155 18.00680738 19.07250977 19.60961914 C19.05865504 22.0555861 19.0927039 24.4977162 19.13085938 26.94335938 C19.13181078 28.50390718 19.12995062 30.06445976 19.125 31.625 C19.13825821 32.35222763 19.15151642 33.07945526 19.16517639 33.82872009 C19.09464412 37.69739653 18.60405493 39.48841645 16.22241211 42.58764648 C13.54213834 44.59443157 12.50466727 45.26656827 9.24609375 45.29296875 C8.0859375 45.30263672 8.0859375 45.30263672 6.90234375 45.3125 C5.71125 45.28349609 5.71125 45.28349609 4.49609375 45.25390625 C3.70203125 45.27324219 2.90796875 45.29257813 2.08984375 45.3125 C1.31640625 45.30605469 0.54296875 45.29960938 -0.25390625 45.29296875 C-1.29804688 45.28450928 -1.29804688 45.28450928 -2.36328125 45.27587891 C-5.81903869 44.23142667 -7.3178342 42.45565078 -9.50390625 39.62890625 C-10.00451741 36.83606273 -10.20809106 34.66263576 -10.16796875 31.87890625 C-10.17275238 31.14317383 -10.17753601 30.40744141 -10.1824646 29.64941406 C-10.18585505 28.09958752 -10.17671217 26.54968864 -10.15576172 25 C-10.12897627 22.63508839 -10.15553042 20.27492123 -10.1875 17.91015625 C-10.18419574 16.39972917 -10.17778915 14.88930502 -10.16796875 13.37890625 C-10.1780899 12.67668945 -10.18821106 11.97447266 -10.19863892 11.25097656 C-10.10862936 7.45780718 -9.57648308 5.72348272 -7.24389648 2.68383789 C-4.46191074 0.59741055 -3.39228234 -0.00330453 0 0 Z M-0.50390625 10.62890625 C-0.81499122 13.11851725 -0.81499122 13.11851725 -0.76953125 16.00390625 C-0.77210938 17.07125 -0.7746875 18.13859375 -0.77734375 19.23828125 C-0.76960938 20.3571875 -0.761875 21.47609375 -0.75390625 22.62890625 C-0.76164062 23.7478125 -0.769375 24.86671875 -0.77734375 26.01953125 C-0.77476562 27.086875 -0.7721875 28.15421875 -0.76953125 29.25390625 C-0.76727539 30.23617187 -0.76501953 31.2184375 -0.76269531 32.23046875 C-0.73763488 34.81329122 -0.73763488 34.81329122 1.49609375 36.62890625 C4.49609375 36.96223958 4.49609375 36.96223958 7.49609375 36.62890625 C9.74734443 34.80138029 9.74734443 34.80138029 9.73901367 32.12280273 C9.73490479 31.09227783 9.7307959 30.06175293 9.7265625 29 C9.72462891 27.88302734 9.72269531 26.76605469 9.72070312 25.61523438 C9.70845703 24.44412109 9.69621094 23.27300781 9.68359375 22.06640625 C9.68262695 20.30393555 9.68262695 20.30393555 9.68164062 18.50585938 C10.16669215 13.20432198 10.16669215 13.20432198 8.49609375 8.62890625 C3.47100059 8.08474891 3.47100059 8.08474891 -0.50390625 10.62890625 Z " fill="#60B510" transform="translate(442.50390625,76.37109375)"/>
<path d="M0 0 C2.97 0 5.94 0 9 0 C9.33 5.94 9.66 11.88 10 18 C12.64 12.06 15.28 6.12 18 0 C21.63 0 25.26 0 29 0 C28.05284727 3.24806416 27.09195259 5.86166957 25.2109375 8.69140625 C22.40915918 13.07291064 20.48677666 16.39652221 21.50976562 21.5859375 C23.27981378 27.19043588 25.62461222 32.5323456 28.17041016 37.82446289 C29 40 29 40 29 44 C25.7 44 22.4 44 19 44 C18.65066406 43.00097656 18.30132813 42.00195312 17.94140625 40.97265625 C17.48192081 39.66921795 17.02227721 38.3658354 16.5625 37.0625 C16.33240234 36.40314453 16.10230469 35.74378906 15.86523438 35.06445312 C14.88035408 31.77671378 14.88035408 31.77671378 13 29 C10.00137961 34.08461719 9.43785905 38.22026059 9 44 C6.03 44 3.06 44 0 44 C0 29.48 0 14.96 0 0 Z " fill="#60B510" transform="translate(510,77)"/>
<path d="M0 0 C5.7853125 -0.1546875 5.7853125 -0.1546875 11.6875 -0.3125 C13.4986731 -0.38078003 13.4986731 -0.38078003 15.34643555 -0.45043945 C20.08496598 -0.51194789 23.11480867 -0.53797343 27.2265625 1.9609375 C29.6241254 6.06953648 29.77540761 9.25546405 29.6875 13.9375 C29.71521484 14.72318359 29.74292969 15.50886719 29.77148438 16.31835938 C29.75367462 20.57489138 29.26418377 23.30820894 26.38671875 26.54296875 C21.49578597 30.75191923 16.11224108 29.37421884 10 29 C10 33.95 10 38.9 10 44 C6.7 44 3.4 44 0 44 C0 29.48 0 14.96 0 0 Z M10 7 C10 11.62 10 16.24 10 21 C12.31 21 14.62 21 17 21 C19.22052862 19.19400239 19.22052862 19.19400239 19.265625 16.6875 C19.26046875 15.800625 19.2553125 14.91375 19.25 14 C19.25515625 13.113125 19.2603125 12.22625 19.265625 11.3125 C19.22052862 8.80599761 19.22052862 8.80599761 17 7 C14.69 7 12.38 7 10 7 Z " fill="#60B510" transform="translate(210,77)"/>
<path d="M0 0 C3.3 0 6.6 0 10 0 C12.62109375 2.66796875 12.62109375 2.66796875 14.4375 6.1875 C15.05496094 7.33605469 15.67242187 8.48460937 16.30859375 9.66796875 C16.86675781 10.76753906 17.42492187 11.86710937 18 13 C18.99 14.65 19.98 16.3 21 18 C21.33 12.06 21.66 6.12 22 0 C24.31 0 26.62 0 29 0 C29 10.56 29 21.12 29 32 C25.7 32 22.4 32 19 32 C13.555 22.1 13.555 22.1 8 12 C7.67 18.6 7.34 25.2 7 32 C4.69 32 2.38 32 0 32 C0 21.44 0 10.88 0 0 Z " fill="#FFFFFF" transform="translate(414,23)"/>
<path d="M0 0 C4.021875 -0.0928125 4.021875 -0.0928125 8.125 -0.1875 C8.95789551 -0.21481201 9.79079102 -0.24212402 10.64892578 -0.27026367 C15.50990335 -0.32419721 18.80262765 0.28814347 23 3 C26.93390912 7.96914836 27.63752162 12.04773311 27.38671875 18.34375 C26.65013125 23.40313886 24.69536361 26.66155505 20.625 29.875 C13.74223982 32.82475436 7.73283453 32 0 32 C0 21.44 0 10.88 0 0 Z M8 6 C8 12.27 8 18.54 8 25 C13.7485535 25.55885346 13.7485535 25.55885346 16.875 23.0625 C19.36004541 19.48111103 19.74127589 17.4347017 19.484375 13.16015625 C18.6726873 9.54029093 17.0140178 8.03118591 14 6 C12.02 6 10.04 6 8 6 Z " fill="#FFFFFF" transform="translate(172,23)"/>
<path d="M0 0 C9.24 0 18.48 0 28 0 C28 2.64 28 5.28 28 8 C25.03 8 22.06 8 19 8 C19 19.88 19 31.76 19 44 C15.7 44 12.4 44 9 44 C9 32.12 9 20.24 9 8 C6.03 8 3.06 8 0 8 C0 5.36 0 2.72 0 0 Z " fill="#60B510" transform="translate(322,77)"/>
<path d="M0 0 C0.639375 0.33 1.27875 0.66 1.9375 1 C1.6075 2.65 1.2775 4.3 0.9375 6 C-1.85309092 6.93019697 -4.16685047 6.96916761 -7.0625 6.8125 C-9.97725015 6.80162407 -10.95036087 6.93552 -13.5625 8.4375 C-15.76847045 12.20603286 -15.54213408 15.73047036 -15.0625 20 C-14.7325 20.99 -14.4025 21.98 -14.0625 23 C-10.89007352 24.31035007 -8.50368336 25 -5.0625 25 C-5.0625 23.35 -5.0625 21.7 -5.0625 20 C-7.0425 20 -9.0225 20 -11.0625 20 C-11.0625 17.69 -11.0625 15.38 -11.0625 13 C-6.7725 13 -2.4825 13 1.9375 13 C1.9375 18.61 1.9375 24.22 1.9375 30 C-4.70125373 32.65550149 -10.62217934 33.06337184 -17.5 30.9375 C-20.85492524 28.40084921 -22.82480175 25.98580792 -24.0625 22 C-24.82497871 15.60888632 -25.06589818 9.33786424 -21.0625 4 C-14.52500305 -1.03932056 -7.92255791 -2.58695769 0 0 Z " fill="#FFFFFF" transform="translate(479.0625,23)"/>
<path d="M0 0 C2.64 0 5.28 0 8 0 C8.33 3.3 8.66 6.6 9 10 C9.70962891 8.9171875 9.70962891 8.9171875 10.43359375 7.8125 C15.77054227 0.32204594 15.77054227 0.32204594 19.53515625 -0.6640625 C21.76757111 -0.6286835 23.81615008 -0.45496873 26 0 C24.13460005 4.1971499 21.28388406 7.26725722 18.265625 10.68359375 C16.69987773 12.93724876 16.69987773 12.93724876 17.5703125 15.43359375 C19.69830229 19.25350984 22.10346546 22.84801997 24.5390625 26.4765625 C26 29 26 29 26 32 C21.06416073 33.05767984 21.06416073 33.05767984 18 32 C15.47654811 29.03938063 13.54543935 25.97115381 11.56640625 22.625 C10.79103516 21.325625 10.79103516 21.325625 10 20 C9.67 20 9.34 20 9 20 C8.67 23.96 8.34 27.92 8 32 C5.36 32 2.72 32 0 32 C0 21.44 0 10.88 0 0 Z " fill="#FFFFFF" transform="translate(352,23)"/>
<path d="M0 0 C16 0 16 0 21 3 C22.59138038 6.18276076 22.39713508 9.5353388 22 13 C20.625 15.5 20.625 15.5 19 17 C18.34 17 17.68 17 17 17 C17.5775 17.83144531 18.155 18.66289063 18.75 19.51953125 C19.4925 20.60621094 20.235 21.69289063 21 22.8125 C21.7425 23.89144531 22.485 24.97039063 23.25 26.08203125 C25 29 25 29 25 32 C19.97951936 32.96886469 19.97951936 32.96886469 17 32 C14.79143671 29.3132045 13.1886948 26.56472215 11.54296875 23.50390625 C10.18853799 20.70631662 10.18853799 20.70631662 7 20 C7 23.96 7 27.92 7 32 C4.69 32 2.38 32 0 32 C0 21.44 0 10.88 0 0 Z M7 6 C7 8.31 7 10.62 7 13 C8.99954746 13.04254356 11.00041636 13.04080783 13 13 C14.29633621 11.93354885 14.29633621 11.93354885 14.0625 9.4375 C14.041875 8.633125 14.02125 7.82875 14 7 C11.69 6.67 9.38 6.34 7 6 Z " fill="#FFFFFF" transform="translate(211,23)"/>
<path d="M0 0 C3.3 0 6.6 0 10 0 C11.43209819 4.05405667 12.8560059 8.1108693 14.27246094 12.17041016 C14.7552554 13.55042467 15.24026201 14.92966736 15.72753906 16.30810547 C16.428391 18.29194555 17.1211866 20.27844401 17.8125 22.265625 C18.23144531 23.45961914 18.65039062 24.65361328 19.08203125 25.88378906 C20 29 20 29 20 33 C17.36 33 14.72 33 12 33 C11.34 30.69 10.68 28.38 10 26 C6.7 26 3.4 26 0 26 C-0.66 28.31 -1.32 30.62 -2 33 C-4.64 33 -7.28 33 -10 33 C-9.43763872 28.29637913 -8.5103547 24.0926943 -6.93359375 19.62890625 C-6.53076172 18.47841797 -6.12792969 17.32792969 -5.71289062 16.14257812 C-5.29201172 14.96115234 -4.87113281 13.77972656 -4.4375 12.5625 C-4.01275391 11.35400391 -3.58800781 10.14550781 -3.15039062 8.90039062 C-2.1060029 5.93151317 -1.05572123 2.96486218 0 0 Z M4 10 C3.34 12.97 2.68 15.94 2 19 C3.98 19 5.96 19 8 19 C7.34 16.03 6.68 13.06 6 10 C5.34 10 4.68 10 4 10 Z " fill="#FFFFFF" transform="translate(254,22)"/>
<path d="M0 0 C-0.66 1.98 -1.32 3.96 -2 6 C-5.63 5.67 -9.26 5.34 -13 5 C-12.4519508 9.04213364 -12.4519508 9.04213364 -9.78515625 10.5625 C-8.88667969 11.036875 -7.98820312 11.51125 -7.0625 12 C-3.4729496 13.90065402 -1.30870542 15.05144879 0 19 C0 25.97435897 0 25.97435897 -3.4375 29.5 C-9.22579858 31.93717835 -14.99444236 31.70203592 -21 30 C-21 27.36 -21 24.72 -21 22 C-20.30132812 22.15597656 -19.60265625 22.31195313 -18.8828125 22.47265625 C-17.51769531 22.76462891 -17.51769531 22.76462891 -16.125 23.0625 C-15.22007812 23.25972656 -14.31515625 23.45695312 -13.3828125 23.66015625 C-10.98985875 24.23202157 -10.98985875 24.23202157 -9 23 C-9 22.01 -9 21.02 -9 20 C-9.61488281 19.68546875 -10.22976563 19.3709375 -10.86328125 19.046875 C-11.67152344 18.61890625 -12.47976563 18.1909375 -13.3125 17.75 C-14.11300781 17.33234375 -14.91351563 16.9146875 -15.73828125 16.484375 C-18.18298025 14.87990933 -19.4927079 13.49466383 -21 11 C-21.53561062 6.79163084 -21.46774118 4.74193428 -19.1875 1.125 C-13.90728455 -4.00435215 -6.27135869 -2.50854348 0 0 Z " fill="#FFFFFF" transform="translate(516,24)"/>
<path d="M0 0 C5.94 0 11.88 0 18 0 C18 1.98 18 3.96 18 6 C14.37 6 10.74 6 7 6 C7 8.31 7 10.62 7 13 C10.63 13 14.26 13 18 13 C18 14.98 18 16.96 18 19 C14.37 19 10.74 19 7 19 C7 23.29 7 27.58 7 32 C4.69 32 2.38 32 0 32 C0 21.44 0 10.88 0 0 Z " fill="#FFFFFF" transform="translate(286,23)"/>
<path d="M0 0 C7.92 0 15.84 0 24 0 C24 1.98 24 3.96 24 6 C21.36 6 18.72 6 16 6 C16 14.58 16 23.16 16 32 C13.36 32 10.72 32 8 32 C8 23.42 8 14.84 8 6 C5.36 6 2.72 6 0 6 C0 4.02 0 2.04 0 0 Z " fill="#FFFFFF" transform="translate(316,23)"/>
<path d="M0 0 C2.64 0 5.28 0 8 0 C8 10.56 8 21.12 8 32 C5.36 32 2.72 32 0 32 C0 21.44 0 10.88 0 0 Z " fill="#FFFFFF" transform="translate(391,23)"/>
<path d="M0 0 C0.66 0.66 1.32 1.32 2 2 C0.91460937 2.26554687 -0.17078125 2.53109375 -1.2890625 2.8046875 C-2.73440647 3.16133082 -4.17971722 3.5181088 -5.625 3.875 C-6.69427734 4.13603516 -6.69427734 4.13603516 -7.78515625 4.40234375 C-11.92796216 5.42854338 -15.96726678 6.58790729 -20 8 C-19.95703125 6.17578125 -19.95703125 6.17578125 -19 4 C-16.5133222 2.83315119 -14.29023462 1.97878976 -11.6875 1.1875 C-10.67139648 0.84428711 -10.67139648 0.84428711 -9.63476562 0.49414062 C-3.30287619 -1.52983576 -3.30287619 -1.52983576 0 0 Z " fill="#6BBA22" transform="translate(81,66)"/>
<path d="M0 0 C0.66 0.66 1.32 1.32 2 2 C-1.63 2.66 -5.26 3.32 -9 4 C-8.67 2.68 -8.34 1.36 -8 0 C-4.96083486 -0.97687451 -3.01586454 -1.105817 0 0 Z " fill="#78C035" transform="translate(81,66)"/>
<path d="M0 0 C2.97397616 0.27036147 3.85446026 0.85446026 6 3 C3.03 3 0.06 3 -3 3 C-2.01 2.01 -1.02 1.02 0 0 Z " fill="#6AB91F" transform="translate(83,64)"/>
</svg>
