<svg preserveAspectRatio="xMinYMin meet" viewBox="0 0 701 200" fill="none" xmlns="http://www.w3.org/2000/svg"><path d="M43.2766 76.8003C56.6358 70.6092 70.7194 66.844 84.5413 65.1943C86.0388 64.9873 86.6567 66.0192 86.5015 67.2062C84.7483 77.8321 83.5612 88.6132 83.0985 99.4948C82.9951 100.734 82.3254 101.558 80.9314 101.817C73.2458 103.315 65.7672 105.686 57.5124 109.451C64.9393 122.348 73.9154 134.157 83.8199 144.062C84.9553 145.249 85.6249 146.488 85.9353 148.497C88.5134 165.055 93.003 181.768 98.9871 197.602C99.3463 198.479 99.3463 199.1 98.8319 199.614C98.2658 200.129 97.3861 200.129 96.5612 199.614C36.7264 163.198 0.61789 97.845 0 29.2928C0 27.643 0.569189 26.4042 1.9602 25.6311C33.7343 7.83709 69.4806 -0.725095 105.382 0.0480282C106.98 0.0997726 107.549 1.49383 106.928 2.78135C101.976 13.045 97.8487 23.5157 94.601 33.9893C94.2388 35.2282 93.4657 35.8461 92.1264 35.8978C72.9384 36.8779 54.2647 41.2123 37.1403 48.3286C38.3792 58.0779 40.4946 67.6202 43.2797 76.8003H43.2766ZM109.558 35.9982C108.371 35.8948 107.546 34.8112 107.908 33.6271C111.674 22.6908 116.005 12.3754 120.909 2.78135C121.475 1.64602 122.455 1.18336 123.797 1.33555C150.826 4.37934 176.409 12.8898 199.21 25.6311C200.604 26.4042 201.222 27.643 201.17 29.2928C200.708 94.1833 168.209 156.286 113.482 193.837C112.45 194.558 111.108 194.148 110.645 192.96C106.673 182.283 103.422 171.45 101.103 160.979C100.792 159.588 101.103 158.505 102.186 157.677C135.303 131.576 158.515 92.6341 164.085 48.3256C147.216 41.3614 128.959 37.0301 109.564 35.9982H109.558ZM249.67 29.1619C249.67 28.4709 250.13 28.0113 250.821 28.0113H303.055C303.7 28.0113 304.206 28.7023 303.974 29.2989L299.281 42.2319C299.004 42.9685 298.499 43.2912 297.716 43.2912H265.778V57.2804H292.423C293.068 57.2804 293.574 57.9714 293.342 58.568L288.74 71.2697C288.463 72.0519 287.958 72.3746 287.176 72.3746H265.775V95.8909C265.775 96.5819 265.315 97.0415 264.624 97.0415H250.818C250.127 97.0415 249.667 96.5819 249.667 95.8909V29.1619H249.67ZM319.805 29.0706C320.082 28.334 320.587 28.0113 321.37 28.0113H339.87C340.652 28.0113 341.157 28.334 341.434 29.0706L365.641 95.757C365.873 96.3566 365.365 97.0445 364.719 97.0445H350.085C349.302 97.0445 348.843 96.6762 348.566 95.9396L343.918 82.5013H317.133L312.485 95.9396C312.253 96.6762 311.748 97.0445 310.966 97.0445H296.514C295.869 97.0445 295.363 96.3536 295.595 95.757L319.802 29.0706H319.805ZM338.765 67.4528L330.528 43.6138L322.289 67.4528H338.765ZM372.399 29.1619C372.399 28.4709 372.858 28.0113 373.549 28.0113H389.611C390.439 28.0113 390.948 28.2883 391.362 29.0249L415.386 69.8939V29.1619C415.386 28.4709 415.846 28.0113 416.537 28.0113H430.066C430.757 28.0113 431.217 28.4709 431.217 29.1619V95.894C431.217 96.5849 430.757 97.0445 430.066 97.0445H414.19C413.362 97.0445 412.857 96.7675 412.44 96.0309L388.233 54.8424V95.894C388.233 96.5849 387.773 97.0445 387.082 97.0445H373.552C372.861 97.0445 372.402 96.5849 372.402 95.894V29.1619H372.399ZM470.512 81.7647C481.464 81.7647 489.749 73.4795 489.749 62.5279C489.749 51.5764 481.464 43.2912 470.512 43.2912H445.982C445.291 43.2912 444.832 42.8316 444.832 42.1406V29.1619C444.832 28.4709 445.291 28.0113 445.982 28.0113H470.512C490.717 28.0113 505.857 42.8316 505.857 62.5279C505.857 82.2243 490.714 97.0445 470.512 97.0445H445.982C445.291 97.0445 444.832 96.5849 444.832 95.894V63.6328C444.832 59.3076 446.214 55.9473 448.652 53.5092C450.862 51.2994 454.313 49.8262 457.397 49.8262H459.789C460.48 49.8262 460.94 50.2858 460.94 50.9767V81.7647H470.512ZM515.795 69.7995V29.1619C515.795 28.4709 516.254 28.0113 516.945 28.0113H530.752C531.443 28.0113 531.902 28.4709 531.902 29.1619V69.7995C531.902 77.6221 537.378 83.0553 545.158 83.0553C552.938 83.0553 558.414 77.6251 558.414 69.7995V29.1619C558.414 28.4709 558.874 28.0113 559.564 28.0113H573.371C574.062 28.0113 574.522 28.4709 574.522 29.1619V69.7995C574.522 86.7352 562.557 98.332 545.161 98.332C527.766 98.332 515.798 86.7352 515.798 69.7995H515.795ZM634.801 54.7023C635.492 54.7023 635.951 55.162 635.951 55.8529V68.6459C635.951 69.3369 635.492 69.7965 634.801 69.7965H604.287V81.7616H636.639C637.33 81.7616 637.79 82.2213 637.79 82.9122V95.8909C637.79 96.5819 637.33 97.0415 636.639 97.0415H589.33C588.639 97.0415 588.179 96.5819 588.179 95.8909V29.1619C588.179 28.4709 588.639 28.0113 589.33 28.0113H636.639C637.33 28.0113 637.79 28.4709 637.79 29.1619V42.1406C637.79 42.8316 637.33 43.2912 636.639 43.2912H604.287V54.7054H634.801V54.7023ZM667.379 81.7647H699.18C699.871 81.7647 700.331 82.2243 700.331 82.9152V95.894C700.331 96.5849 699.871 97.0445 699.18 97.0445H652.421C651.73 97.0445 651.271 96.5849 651.271 95.894V29.1619C651.271 28.4709 651.73 28.0113 652.421 28.0113H666.228C666.919 28.0113 667.379 28.4709 667.379 29.1619V81.7647Z" fill="white"></path><path d="M277.776 147.06C277.776 154.995 270.721 158.109 264.238 158.109C254.071 158.109 249.609 152.505 248.623 146.229H254.537C255.627 150.43 258.427 152.609 264.186 152.609C269.062 152.609 271.862 150.688 271.862 147.319C271.862 143.949 268.907 143.377 262.162 141.873C255.106 140.318 249.609 138.346 249.609 131.552C249.609 124.341 255.989 120.555 262.941 120.555C272.069 120.555 276.273 125.276 277.311 131.034H271.397C270.359 128.027 267.869 126.055 262.993 126.055C258.117 126.055 255.472 128.234 255.472 131.397C255.472 133.99 257.547 134.821 263.565 136.118C272.748 138.142 277.78 140.059 277.78 147.063L277.776 147.06Z" fill="white"></path><path d="M281.98 157.488V121.176H296.868C304.803 121.176 309.627 125.948 309.627 133.107C309.627 140.266 304.803 145.194 296.868 145.194H287.843V157.488H281.98ZM296.661 139.59C301.433 139.59 303.664 136.842 303.664 133.159C303.664 129.476 301.433 126.779 296.661 126.779H287.843V139.594H296.661V139.59Z" fill="white"></path><path d="M349.832 139.332C349.78 150.019 341.635 158.109 331.003 158.109C320.371 158.109 312.174 150.016 312.174 139.332C312.174 128.648 320.371 120.555 331.003 120.555C341.635 120.555 349.78 128.648 349.832 139.332ZM318.088 139.332C318.088 146.905 323.64 152.508 331.006 152.508C338.372 152.508 343.872 146.905 343.872 139.332C343.872 131.759 338.32 126.155 331.006 126.155C323.692 126.155 318.088 131.759 318.088 139.332Z" fill="white"></path><path d="M354.142 121.176H369.132C377.019 121.176 381.478 125.845 381.478 132.69C381.478 138.708 378.106 142.546 372.347 143.636L383.189 157.485H375.978L365.656 143.946H360.001V157.485H354.139V121.173L354.142 121.176ZM368.511 138.76C373.336 138.76 375.567 136.27 375.567 132.742C375.567 129.214 373.284 126.776 368.511 126.776H360.004V138.76H368.511Z" fill="white"></path><path d="M410.582 126.779H399.482V157.488H393.619V126.779H382.57V121.176H410.582V126.779Z" fill="white"></path><path d="M440.671 147.06C440.671 154.995 433.616 158.109 427.132 158.109C416.966 158.109 412.504 152.505 411.518 146.229H417.432C418.521 150.43 421.322 152.609 427.08 152.609C431.957 152.609 434.757 150.688 434.757 147.319C434.757 143.949 431.801 143.377 425.056 141.873C418.001 140.318 412.504 138.346 412.504 131.552C412.504 124.341 418.884 120.555 425.836 120.555C434.964 120.555 439.167 125.276 440.205 131.034H434.291C433.253 128.027 430.763 126.055 425.887 126.055C421.011 126.055 418.366 128.234 418.366 131.397C418.366 133.99 420.442 134.821 426.46 136.118C435.643 138.142 440.674 140.059 440.674 147.063L440.671 147.06Z" fill="white"></path><path d="M482.226 149.239L481.705 136.373V121.173H487.567V157.485H480.615L462.459 129.421L463.028 142.284V157.485H457.166V121.173H464.066L482.223 149.236L482.226 149.239Z" fill="white"></path><path d="M515.893 126.779H498.047V136.169H514.593V141.773H498.047V151.888H515.893V157.491H492.188V121.179H515.893V126.782V126.779Z" fill="white"></path><path d="M546.084 126.779H534.984V157.488H529.121V126.779H518.072V121.176H546.084V126.779Z" fill="white"></path><path d="M588 157.488H580.686L577.21 144.363L573.683 128.179L572.748 128.128L569.272 144.363L565.796 157.488H558.43L548.781 121.176H554.799L559.416 138.553L562.165 151.312L564.913 138.553L569.479 121.176H576.948L581.514 138.553L584.314 151.416L587.063 138.553L591.629 121.176H597.646L587.997 157.488H588Z" fill="white"></path><path d="M635.467 139.332C635.416 150.019 627.271 158.109 616.636 158.109C606.001 158.109 597.807 150.016 597.807 139.332C597.807 128.648 606.004 120.555 616.636 120.555C627.267 120.555 635.413 128.648 635.467 139.332ZM603.721 139.332C603.721 146.905 609.273 152.508 616.639 152.508C624.005 152.508 629.505 146.905 629.505 139.332C629.505 131.759 623.953 126.155 616.639 126.155C609.324 126.155 603.721 131.759 603.721 139.332Z" fill="white"></path><path d="M639.777 121.176H654.768C662.651 121.176 667.114 125.845 667.114 132.69C667.114 138.708 663.741 142.546 657.985 143.636L668.827 157.485H661.617L651.295 143.946H645.64V157.485H639.777V121.173V121.176ZM654.144 138.76C658.968 138.76 661.2 136.27 661.2 132.742C661.2 129.214 658.917 126.776 654.144 126.776H645.637V138.76H654.144Z" fill="white"></path><path d="M684.287 138.863L700.732 157.485H693.315L677.962 140.16V157.485H672.1V121.173H677.962V137.722L692.642 121.173H700.008L684.29 138.863H684.287Z" fill="white"></path></svg>
